<svg width="51" height="51" viewBox="0 0 51 51" fill="none" xmlns="http://www.w3.org/2000/svg">
<path fill-rule="evenodd" clip-rule="evenodd" d="M0 25.5C0 11.4167 11.4167 0 25.5 0C39.5833 0 51 11.4167 51 25.5C51 39.5833 39.5833 51 25.5 51C11.4167 51 0 39.5833 0 25.5ZM25.5 12.75C32.5125 12.75 38.25 18.4875 38.25 25.5C38.25 31.875 33.6281 37.2937 27.2531 38.25V29.1656H30.2812L30.9187 25.5H27.4125V23.1094C27.4125 22.1531 27.8906 21.1969 29.4844 21.1969H31.0781V18.0094C31.0781 18.0094 29.6438 17.6906 28.2094 17.6906C25.3406 17.6906 23.4281 19.4437 23.4281 22.6312V25.5H20.2406V29.1656H23.4281V38.0906C17.3719 37.1344 12.75 31.875 12.75 25.5C12.75 18.4875 18.4875 12.75 25.5 12.75Z" fill="white"/>
<rect width="51" height="51" rx="25.5" fill="#F08080" fill-opacity="0.16"/>
</svg>
