<svg width="51" height="51" viewBox="0 0 51 51" fill="none" xmlns="http://www.w3.org/2000/svg">
<path d="M25.5 29.9625C23.1094 29.9625 21.0375 28.05 21.0375 25.5C21.0375 23.1094 22.95 21.0375 25.5 21.0375C27.8906 21.0375 29.9625 22.95 29.9625 25.5C29.9625 27.8906 27.8906 29.9625 25.5 29.9625Z" fill="white"/>
<path fill-rule="evenodd" clip-rule="evenodd" d="M30.9187 14.6625H20.0813C18.8063 14.8219 18.1688 14.9812 17.6906 15.1406C17.0531 15.3 16.575 15.6187 16.0969 16.0969C15.7185 16.4752 15.5398 16.8535 15.3237 17.3108C15.2668 17.4314 15.2071 17.5577 15.1406 17.6906C15.116 17.7646 15.0875 17.8424 15.057 17.9257C14.8903 18.3812 14.6625 19.0035 14.6625 20.0812V30.9187C14.8219 32.1937 14.9812 32.8312 15.1406 33.3094C15.3 33.9469 15.6188 34.425 16.0969 34.9031C16.4752 35.2815 16.8535 35.4602 17.3108 35.6763C17.4315 35.7333 17.5576 35.7928 17.6906 35.8594C17.7646 35.884 17.8424 35.9125 17.9257 35.943C18.3812 36.1097 19.0035 36.3375 20.0813 36.3375H30.9187C32.1937 36.1781 32.8313 36.0187 33.3094 35.8594C33.9469 35.7 34.425 35.3812 34.9031 34.9031C35.2815 34.5248 35.4602 34.1465 35.6763 33.6892C35.7332 33.5686 35.7929 33.4424 35.8594 33.3094C35.884 33.2354 35.9125 33.1576 35.943 33.0743C36.1097 32.6187 36.3375 31.9965 36.3375 30.9187V20.0812C36.1781 18.8062 36.0188 18.1687 35.8594 17.6906C35.7 17.0531 35.3812 16.575 34.9031 16.0969C34.5248 15.7185 34.1465 15.5398 33.6892 15.3237C33.5687 15.2668 33.4422 15.207 33.3094 15.1406C33.2354 15.116 33.1576 15.0875 33.0743 15.057C32.6188 14.8903 31.9965 14.6625 30.9187 14.6625ZM25.5 18.6469C21.675 18.6469 18.6469 21.675 18.6469 25.5C18.6469 29.325 21.675 32.3531 25.5 32.3531C29.325 32.3531 32.3531 29.325 32.3531 25.5C32.3531 21.675 29.325 18.6469 25.5 18.6469ZM34.1062 18.4875C34.1062 19.3677 33.3927 20.0812 32.5125 20.0812C31.6323 20.0812 30.9187 19.3677 30.9187 18.4875C30.9187 17.6073 31.6323 16.8937 32.5125 16.8937C33.3927 16.8937 34.1062 17.6073 34.1062 18.4875Z" fill="white"/>
<path fill-rule="evenodd" clip-rule="evenodd" d="M0 25.5C0 11.4167 11.4167 0 25.5 0C39.5833 0 51 11.4167 51 25.5C51 39.5833 39.5833 51 25.5 51C11.4167 51 0 39.5833 0 25.5ZM20.0813 12.2719H30.9187C32.3531 12.4312 33.3094 12.5906 34.1062 12.9094C35.0625 13.3875 35.7 13.7062 36.4969 14.5031C37.2937 15.3 37.7719 16.0969 38.0906 16.8937C38.4094 17.6906 38.7281 18.6469 38.7281 20.0812V30.9187C38.5687 32.3531 38.4094 33.3094 38.0906 34.1062C37.6125 35.0625 37.2937 35.7 36.4969 36.4969C35.7 37.2937 34.9031 37.7719 34.1062 38.0906C33.3094 38.4094 32.3531 38.7281 30.9187 38.7281H20.0813C18.6469 38.5687 17.6906 38.4094 16.8938 38.0906C15.9375 37.6125 15.3 37.2937 14.5031 36.4969C13.7063 35.7 13.2281 34.9031 12.9094 34.1062C12.5906 33.3094 12.2719 32.3531 12.2719 30.9187V20.0812C12.4312 18.6469 12.5906 17.6906 12.9094 16.8937C13.3875 15.9375 13.7063 15.3 14.5031 14.5031C15.3 13.7062 16.0969 13.2281 16.8938 12.9094C17.6906 12.5906 18.6469 12.2719 20.0813 12.2719Z" fill="white"/>
<rect width="51" height="51" rx="25.5" fill="#F08080" fill-opacity="0.16"/>
</svg>
