<svg width="51" height="51" viewBox="0 0 51 51" fill="none" xmlns="http://www.w3.org/2000/svg">
<path fill-rule="evenodd" clip-rule="evenodd" d="M20.0813 34.5844C21.675 35.5406 23.5875 36.0187 25.5 36.0187C31.3969 36.0187 36.0188 31.2375 36.0188 25.6594C36.0188 22.7906 35.0625 20.2406 32.9906 18.1688C30.9188 16.2562 28.3688 15.1406 25.5 15.1406C19.7625 15.1406 14.9812 19.9219 14.9812 25.6594C14.9812 27.5719 15.4594 29.4844 16.575 31.2375L16.8938 31.7156L15.7781 35.5406L19.7625 34.425L20.0813 34.5844ZM29.0063 27.0938C29.325 27.0938 30.9188 27.8906 31.2375 28.05C31.2871 28.0748 31.3368 28.0958 31.3858 28.1165C31.6517 28.2287 31.8998 28.3335 32.0344 29.0062C32.1938 29.0062 32.1937 29.6437 31.875 30.4406C31.7156 31.0781 30.4406 31.875 29.8031 31.875C29.6951 31.875 29.5917 31.8841 29.4812 31.8939C28.9396 31.9418 28.2284 32.0047 25.9781 31.0781C23.1851 29.9609 21.2487 27.253 20.7049 26.4926C20.6281 26.3852 20.5791 26.3166 20.5594 26.2969C20.5322 26.2426 20.4774 26.156 20.405 26.0418C20.0524 25.4851 19.2844 24.2724 19.2844 22.95C19.2844 21.3563 20.0812 20.5594 20.4 20.2406C20.7187 19.9219 21.0375 19.9219 21.1969 19.9219H21.8344C21.9938 19.9219 22.3125 19.9219 22.4719 20.4C22.7906 21.0375 23.4281 22.6312 23.4281 22.7906C23.4281 22.8438 23.4458 22.8969 23.4636 22.95C23.499 23.0563 23.5344 23.1625 23.4281 23.2687C23.3485 23.3484 23.3086 23.4281 23.2688 23.5078C23.2289 23.5875 23.1891 23.6672 23.1094 23.7469L22.6313 24.225C22.4719 24.3844 22.3125 24.5438 22.4719 24.8625C22.6313 25.1813 23.2688 26.2969 24.225 27.0938C25.301 28.0352 26.1499 28.4092 26.5803 28.5988C26.6599 28.6339 26.7252 28.6626 26.775 28.6875C27.0937 28.6875 27.2531 28.6875 27.4125 28.5281C27.4922 28.3688 27.6914 28.1297 27.8906 27.8906C28.0898 27.6516 28.289 27.4125 28.3687 27.2531C28.5281 26.9344 28.6875 26.9344 29.0063 27.0938Z" fill="white" fill-opacity="0.77"/>
<path fill-rule="evenodd" clip-rule="evenodd" d="M0 25.5C0 11.4167 11.4167 0 25.5 0C39.5833 0 51 11.4167 51 25.5C51 39.5833 39.5833 51 25.5 51C11.4167 51 0 39.5833 0 25.5ZM25.5 12.75C28.8469 12.75 32.0344 14.025 34.425 16.4156C36.8156 18.8063 38.25 21.9938 38.25 25.3406C38.25 32.3531 32.5125 38.0906 25.5 38.0906C23.4281 38.0906 21.3563 37.4531 19.4438 36.4969L12.75 38.25L14.5031 31.875C13.3875 29.9625 12.75 27.7313 12.75 25.5C12.75 18.4875 18.4875 12.75 25.5 12.75Z" fill="white" fill-opacity="0.77"/>
<rect width="51" height="51" rx="25.5" fill="#F08080" fill-opacity="0.06"/>
</svg>
